name rise44.9368peak50.754fall52.0217.mot
datacolumns 19
datarows 33
range 13.90661900000000 13.95995200000000
endheader
time	ground_force1_vx	ground_force1_vy	ground_force1_vz	ground_force1_px	ground_force1_py	ground_force1_pz	ground_force2_vx	ground_force2_vy	ground_force2_vz	ground_force2_px	ground_force2_py	ground_force2_pz	ground_torque1_x	ground_torque1_y	ground_torque1_z	ground_torque2_x	ground_torque2_y	ground_torque2_z	
13.90661900000000	5.54011000000000	702.49565299999995	47.47762800000000	0.26501400000000	0.00000000000000	0.12977800000000	0.00000000000000	0.00000000000000	0.00000000000000	0.00000000000000	0.00000000000000	0.00000000000000	0.00000000000000	22.90227900000000	0.00000000000000	0.00000000000000	0.00000000000000	0.00000000000000	
13.90828500000000	5.23554500000000	702.93669499999999	47.44365500000000	0.26397000000000	0.00000000000000	0.12972100000000	0.00000000000000	0.00000000000000	0.00000000000000	0.00000000000000	0.00000000000000	0.00000000000000	0.00000000000000	22.90527600000000	0.00000000000000	0.00000000000000	0.00000000000000	0.00000000000000	
13.90995100000000	4.92222300000000	703.40941499999997	47.41746300000000	0.26294400000000	0.00000000000000	0.12966400000000	0.00000000000000	0.00000000000000	0.00000000000000	0.00000000000000	0.00000000000000	0.00000000000000	0.00000000000000	22.91614600000000	0.00000000000000	0.00000000000000	0.00000000000000	0.00000000000000	
13.91162000000000	4.59994100000000	703.91275700000006	47.39875000000000	0.26193800000000	0.00000000000000	0.12960600000000	0.00000000000000	0.00000000000000	0.00000000000000	0.00000000000000	0.00000000000000	0.00000000000000	0.00000000000000	22.93474000000000	0.00000000000000	0.00000000000000	0.00000000000000	0.00000000000000	
13.91328900000000	4.26851600000000	704.44571699999995	47.38720700000000	0.26095000000000	0.00000000000000	0.12954800000000	0.00000000000000	0.00000000000000	0.00000000000000	0.00000000000000	0.00000000000000	0.00000000000000	0.00000000000000	22.96089900000000	0.00000000000000	0.00000000000000	0.00000000000000	0.00000000000000	
13.91495100000000	3.92779000000000	705.00733900000000	47.38252600000000	0.25998100000000	0.00000000000000	0.12949000000000	0.00000000000000	0.00000000000000	0.00000000000000	0.00000000000000	0.00000000000000	0.00000000000000	0.00000000000000	22.99445300000000	0.00000000000000	0.00000000000000	0.00000000000000	0.00000000000000	
13.91662100000000	3.57762500000000	705.59672200000000	47.38439900000000	0.25903200000000	0.00000000000000	0.12943100000000	0.00000000000000	0.00000000000000	0.00000000000000	0.00000000000000	0.00000000000000	0.00000000000000	0.00000000000000	23.03522300000000	0.00000000000000	0.00000000000000	0.00000000000000	0.00000000000000	
13.91828100000000	3.21790900000000	706.21302100000003	47.39251700000000	0.25810200000000	0.00000000000000	0.12937100000000	0.00000000000000	0.00000000000000	0.00000000000000	0.00000000000000	0.00000000000000	0.00000000000000	0.00000000000000	23.08301900000000	0.00000000000000	0.00000000000000	0.00000000000000	0.00000000000000	
13.91995100000000	2.84855500000000	706.85545300000001	47.40657500000000	0.25719100000000	0.00000000000000	0.12931100000000	0.00000000000000	0.00000000000000	0.00000000000000	0.00000000000000	0.00000000000000	0.00000000000000	0.00000000000000	23.13764200000000	0.00000000000000	0.00000000000000	0.00000000000000	0.00000000000000	
13.92161700000000	2.46949900000000	707.52329199999997	47.42627300000000	0.25630000000000	0.00000000000000	0.12925100000000	0.00000000000000	0.00000000000000	0.00000000000000	0.00000000000000	0.00000000000000	0.00000000000000	0.00000000000000	23.19888700000000	0.00000000000000	0.00000000000000	0.00000000000000	0.00000000000000	
13.92328400000000	2.08070300000000	708.21587699999998	47.45131100000000	0.25542800000000	0.00000000000000	0.12919000000000	0.00000000000000	0.00000000000000	0.00000000000000	0.00000000000000	0.00000000000000	0.00000000000000	0.00000000000000	23.26653700000000	0.00000000000000	0.00000000000000	0.00000000000000	0.00000000000000	
13.92494800000000	1.68215100000000	708.93260899999996	47.48139900000000	0.25457500000000	0.00000000000000	0.12912800000000	0.00000000000000	0.00000000000000	0.00000000000000	0.00000000000000	0.00000000000000	0.00000000000000	0.00000000000000	23.34037000000000	0.00000000000000	0.00000000000000	0.00000000000000	0.00000000000000	
13.92661400000000	1.27385600000000	709.67295100000001	47.51625300000000	0.25374000000000	0.00000000000000	0.12906500000000	0.00000000000000	0.00000000000000	0.00000000000000	0.00000000000000	0.00000000000000	0.00000000000000	0.00000000000000	23.42015700000000	0.00000000000000	0.00000000000000	0.00000000000000	0.00000000000000	
13.92828600000000	0.85585500000000	710.43643199999997	47.55559500000000	0.25292300000000	0.00000000000000	0.12900200000000	0.00000000000000	0.00000000000000	0.00000000000000	0.00000000000000	0.00000000000000	0.00000000000000	0.00000000000000	23.50566200000000	0.00000000000000	0.00000000000000	0.00000000000000	0.00000000000000	
13.92994900000000	0.42820700000000	711.22263899999996	47.59915700000000	0.25212300000000	0.00000000000000	0.12893900000000	0.00000000000000	0.00000000000000	0.00000000000000	0.00000000000000	0.00000000000000	0.00000000000000	0.00000000000000	23.59664300000000	0.00000000000000	0.00000000000000	0.00000000000000	0.00000000000000	
13.93161900000000	-0.00899900000000	712.03122299999995	47.64668100000000	0.25134000000000	0.00000000000000	0.12887400000000	0.00000000000000	0.00000000000000	0.00000000000000	0.00000000000000	0.00000000000000	0.00000000000000	0.00000000000000	23.69285400000000	0.00000000000000	0.00000000000000	0.00000000000000	0.00000000000000	
13.93328500000000	-0.45565400000000	712.86189200000001	47.69791800000000	0.25057400000000	0.00000000000000	0.12881000000000	0.00000000000000	0.00000000000000	0.00000000000000	0.00000000000000	0.00000000000000	0.00000000000000	0.00000000000000	23.79404400000000	0.00000000000000	0.00000000000000	0.00000000000000	0.00000000000000	
13.93495200000000	-0.91162000000000	713.71441100000004	47.75263100000000	0.24982300000000	0.00000000000000	0.12874400000000	0.00000000000000	0.00000000000000	0.00000000000000	0.00000000000000	0.00000000000000	0.00000000000000	0.00000000000000	23.89995600000000	0.00000000000000	0.00000000000000	0.00000000000000	0.00000000000000	
13.93661400000000	-1.37673900000000	714.58860000000004	47.81059700000000	0.24908700000000	0.00000000000000	0.12867800000000	0.00000000000000	0.00000000000000	0.00000000000000	0.00000000000000	0.00000000000000	0.00000000000000	0.00000000000000	24.01033200000000	0.00000000000000	0.00000000000000	0.00000000000000	0.00000000000000	
13.93828000000000	-1.85082600000000	715.48432700000001	47.87160200000000	0.24836400000000	0.00000000000000	0.12861200000000	0.00000000000000	0.00000000000000	0.00000000000000	0.00000000000000	0.00000000000000	0.00000000000000	0.00000000000000	24.12491100000000	0.00000000000000	0.00000000000000	0.00000000000000	0.00000000000000	
13.93994800000000	-2.33367300000000	716.40150800000004	47.93544700000000	0.24765500000000	0.00000000000000	0.12854500000000	0.00000000000000	0.00000000000000	0.00000000000000	0.00000000000000	0.00000000000000	0.00000000000000	0.00000000000000	24.24342700000000	0.00000000000000	0.00000000000000	0.00000000000000	0.00000000000000	
13.94161900000000	-2.82504900000000	717.34010400000000	48.00194900000000	0.24695700000000	0.00000000000000	0.12847800000000	0.00000000000000	0.00000000000000	0.00000000000000	0.00000000000000	0.00000000000000	0.00000000000000	0.00000000000000	24.36561500000000	0.00000000000000	0.00000000000000	0.00000000000000	0.00000000000000	
13.94328600000000	-3.32470100000000	718.30011000000002	48.07093500000000	0.24627100000000	0.00000000000000	0.12841100000000	0.00000000000000	0.00000000000000	0.00000000000000	0.00000000000000	0.00000000000000	0.00000000000000	0.00000000000000	24.49120700000000	0.00000000000000	0.00000000000000	0.00000000000000	0.00000000000000	
13.94495000000000	-3.83235500000000	719.28155800000002	48.14225000000000	0.24559500000000	0.00000000000000	0.12834300000000	0.00000000000000	0.00000000000000	0.00000000000000	0.00000000000000	0.00000000000000	0.00000000000000	0.00000000000000	24.61993700000000	0.00000000000000	0.00000000000000	0.00000000000000	0.00000000000000	
13.94661500000000	-4.34771300000000	720.28450699999996	48.21575300000000	0.24492800000000	0.00000000000000	0.12827500000000	0.00000000000000	0.00000000000000	0.00000000000000	0.00000000000000	0.00000000000000	0.00000000000000	0.00000000000000	24.75153600000000	0.00000000000000	0.00000000000000	0.00000000000000	0.00000000000000	
13.94828300000000	-4.87045800000000	721.30903799999999	48.29131900000000	0.24426900000000	0.00000000000000	0.12820800000000	0.00000000000000	0.00000000000000	0.00000000000000	0.00000000000000	0.00000000000000	0.00000000000000	0.00000000000000	24.88573800000000	0.00000000000000	0.00000000000000	0.00000000000000	0.00000000000000	
13.94995100000000	-5.40025400000000	722.35524999999996	48.36883700000000	0.24361700000000	0.00000000000000	0.12814000000000	0.00000000000000	0.00000000000000	0.00000000000000	0.00000000000000	0.00000000000000	0.00000000000000	0.00000000000000	25.02227600000000	0.00000000000000	0.00000000000000	0.00000000000000	0.00000000000000	
13.95161400000000	-5.93674500000000	723.42325400000004	48.44821300000000	0.24297000000000	0.00000000000000	0.12807300000000	0.00000000000000	0.00000000000000	0.00000000000000	0.00000000000000	0.00000000000000	0.00000000000000	0.00000000000000	25.16088700000000	0.00000000000000	0.00000000000000	0.00000000000000	0.00000000000000	
13.95328400000000	-6.47955700000000	724.51316299999996	48.52937100000000	0.24232900000000	0.00000000000000	0.12800500000000	0.00000000000000	0.00000000000000	0.00000000000000	0.00000000000000	0.00000000000000	0.00000000000000	0.00000000000000	25.30131000000000	0.00000000000000	0.00000000000000	0.00000000000000	0.00000000000000	
13.95495100000000	-7.02830200000000	725.62509200000000	48.61224700000000	0.24169100000000	0.00000000000000	0.12793900000000	0.00000000000000	0.00000000000000	0.00000000000000	0.00000000000000	0.00000000000000	0.00000000000000	0.00000000000000	25.44328500000000	0.00000000000000	0.00000000000000	0.00000000000000	0.00000000000000	
13.95661900000000	-7.58257100000000	726.75914799999998	48.69679500000000	0.24105500000000	0.00000000000000	0.12787200000000	0.00000000000000	0.00000000000000	0.00000000000000	0.00000000000000	0.00000000000000	0.00000000000000	0.00000000000000	25.58655800000000	0.00000000000000	0.00000000000000	0.00000000000000	0.00000000000000	
13.95828000000000	-8.14194600000000	727.91542300000003	48.78298600000000	0.24042200000000	0.00000000000000	0.12780600000000	0.00000000000000	0.00000000000000	0.00000000000000	0.00000000000000	0.00000000000000	0.00000000000000	0.00000000000000	25.73087900000000	0.00000000000000	0.00000000000000	0.00000000000000	0.00000000000000	
13.95995200000000	-8.70599100000000	729.09398899999997	48.87080500000000	0.23978800000000	0.00000000000000	0.12774100000000	0.00000000000000	0.00000000000000	0.00000000000000	0.00000000000000	0.00000000000000	0.00000000000000	0.00000000000000	25.87600200000000	0.00000000000000	0.00000000000000	0.00000000000000	0.00000000000000	
